<mxfile host="app.diagrams.net" agent="Mozilla/5.0 (Windows NT 10.0; Win64; x64) AppleWebKit/537.36 (KHTML, like Gecko) Chrome/127.0.0.0 Safari/537.36" version="24.7.7">
  <diagram name="Page-1" id="ocLAMYXE0Fs5x7xKUwPi">
    <mxGraphModel dx="1195" dy="650" grid="1" gridSize="10" guides="1" tooltips="1" connect="1" arrows="1" fold="1" page="1" pageScale="1" pageWidth="850" pageHeight="1100" math="0" shadow="0">
      <root>
        <mxCell id="0" />
        <mxCell id="1" parent="0" />
        <mxCell id="XiqDTn7KQK7_tJrDZ4pP-1" value="" style="shape=umlLifeline;perimeter=lifelinePerimeter;whiteSpace=wrap;html=1;container=1;dropTarget=0;collapsible=0;recursiveResize=0;outlineConnect=0;portConstraint=eastwest;newEdgeStyle={&quot;curved&quot;:0,&quot;rounded&quot;:0};participant=umlActor;" parent="1" vertex="1">
          <mxGeometry x="70" y="40" width="20" height="1990" as="geometry" />
        </mxCell>
        <mxCell id="XiqDTn7KQK7_tJrDZ4pP-2" value="App" style="shape=umlLifeline;perimeter=lifelinePerimeter;whiteSpace=wrap;html=1;container=1;dropTarget=0;collapsible=0;recursiveResize=0;outlineConnect=0;portConstraint=eastwest;newEdgeStyle={&quot;curved&quot;:0,&quot;rounded&quot;:0};" parent="1" vertex="1">
          <mxGeometry x="375" y="40" width="100" height="2000" as="geometry" />
        </mxCell>
        <mxCell id="XiqDTn7KQK7_tJrDZ4pP-6" value="" style="html=1;points=[[0,0,0,0,5],[0,1,0,0,-5],[1,0,0,0,5],[1,1,0,0,-5]];perimeter=orthogonalPerimeter;outlineConnect=0;targetShapes=umlLifeline;portConstraint=eastwest;newEdgeStyle={&quot;curved&quot;:0,&quot;rounded&quot;:0};" parent="XiqDTn7KQK7_tJrDZ4pP-2" vertex="1">
          <mxGeometry x="45" y="60" width="10" height="1870" as="geometry" />
        </mxCell>
        <mxCell id="XiqDTn7KQK7_tJrDZ4pP-3" value="API" style="shape=umlLifeline;perimeter=lifelinePerimeter;whiteSpace=wrap;html=1;container=1;dropTarget=0;collapsible=0;recursiveResize=0;outlineConnect=0;portConstraint=eastwest;newEdgeStyle={&quot;curved&quot;:0,&quot;rounded&quot;:0};" parent="1" vertex="1">
          <mxGeometry x="700" y="40" width="100" height="1990" as="geometry" />
        </mxCell>
        <mxCell id="nfEbrX3HUhrgIlw5K9qe-4" value="" style="html=1;points=[[0,0,0,0,5],[0,1,0,0,-5],[1,0,0,0,5],[1,1,0,0,-5]];perimeter=orthogonalPerimeter;outlineConnect=0;targetShapes=umlLifeline;portConstraint=eastwest;newEdgeStyle={&quot;curved&quot;:0,&quot;rounded&quot;:0};" vertex="1" parent="XiqDTn7KQK7_tJrDZ4pP-3">
          <mxGeometry x="45" y="80" width="10" height="100" as="geometry" />
        </mxCell>
        <mxCell id="nfEbrX3HUhrgIlw5K9qe-7" value="" style="html=1;points=[[0,0,0,0,5],[0,1,0,0,-5],[1,0,0,0,5],[1,1,0,0,-5]];perimeter=orthogonalPerimeter;outlineConnect=0;targetShapes=umlLifeline;portConstraint=eastwest;newEdgeStyle={&quot;curved&quot;:0,&quot;rounded&quot;:0};" vertex="1" parent="XiqDTn7KQK7_tJrDZ4pP-3">
          <mxGeometry x="50" y="130" width="10" height="40" as="geometry" />
        </mxCell>
        <mxCell id="nfEbrX3HUhrgIlw5K9qe-8" value="Send OTP" style="html=1;align=left;spacingLeft=2;endArrow=block;rounded=0;edgeStyle=orthogonalEdgeStyle;curved=0;rounded=0;" edge="1" target="nfEbrX3HUhrgIlw5K9qe-7" parent="XiqDTn7KQK7_tJrDZ4pP-3">
          <mxGeometry relative="1" as="geometry">
            <mxPoint x="55" y="110" as="sourcePoint" />
            <Array as="points">
              <mxPoint x="85" y="140" />
            </Array>
          </mxGeometry>
        </mxCell>
        <mxCell id="nfEbrX3HUhrgIlw5K9qe-10" value="" style="html=1;points=[[0,0,0,0,5],[0,1,0,0,-5],[1,0,0,0,5],[1,1,0,0,-5]];perimeter=orthogonalPerimeter;outlineConnect=0;targetShapes=umlLifeline;portConstraint=eastwest;newEdgeStyle={&quot;curved&quot;:0,&quot;rounded&quot;:0};" vertex="1" parent="XiqDTn7KQK7_tJrDZ4pP-3">
          <mxGeometry x="45" y="240" width="10" height="100" as="geometry" />
        </mxCell>
        <mxCell id="nfEbrX3HUhrgIlw5K9qe-12" value="" style="html=1;points=[[0,0,0,0,5],[0,1,0,0,-5],[1,0,0,0,5],[1,1,0,0,-5]];perimeter=orthogonalPerimeter;outlineConnect=0;targetShapes=umlLifeline;portConstraint=eastwest;newEdgeStyle={&quot;curved&quot;:0,&quot;rounded&quot;:0};" vertex="1" parent="XiqDTn7KQK7_tJrDZ4pP-3">
          <mxGeometry x="50" y="280" width="10" height="40" as="geometry" />
        </mxCell>
        <mxCell id="nfEbrX3HUhrgIlw5K9qe-13" value="Verify OTP" style="html=1;align=left;spacingLeft=2;endArrow=block;rounded=0;edgeStyle=orthogonalEdgeStyle;curved=0;rounded=0;" edge="1" target="nfEbrX3HUhrgIlw5K9qe-12" parent="XiqDTn7KQK7_tJrDZ4pP-3">
          <mxGeometry relative="1" as="geometry">
            <mxPoint x="55" y="260" as="sourcePoint" />
            <Array as="points">
              <mxPoint x="85" y="290" />
            </Array>
          </mxGeometry>
        </mxCell>
        <mxCell id="nfEbrX3HUhrgIlw5K9qe-2" value="Enter email and phone no" style="html=1;verticalAlign=bottom;endArrow=block;curved=0;rounded=0;" edge="1" parent="1" target="XiqDTn7KQK7_tJrDZ4pP-6">
          <mxGeometry width="80" relative="1" as="geometry">
            <mxPoint x="80" y="120" as="sourcePoint" />
            <mxPoint x="160" y="120" as="targetPoint" />
          </mxGeometry>
        </mxCell>
        <mxCell id="nfEbrX3HUhrgIlw5K9qe-3" value="Request for OTP ( email, phone no )" style="html=1;verticalAlign=bottom;endArrow=block;curved=0;rounded=0;" edge="1" parent="1" target="nfEbrX3HUhrgIlw5K9qe-4">
          <mxGeometry width="80" relative="1" as="geometry">
            <mxPoint x="430" y="140" as="sourcePoint" />
            <mxPoint x="510" y="140" as="targetPoint" />
          </mxGeometry>
        </mxCell>
        <mxCell id="nfEbrX3HUhrgIlw5K9qe-9" value="Enter OTP" style="html=1;verticalAlign=bottom;endArrow=block;curved=0;rounded=0;" edge="1" parent="1" target="XiqDTn7KQK7_tJrDZ4pP-6">
          <mxGeometry width="80" relative="1" as="geometry">
            <mxPoint x="80" y="260" as="sourcePoint" />
            <mxPoint x="160" y="260" as="targetPoint" />
          </mxGeometry>
        </mxCell>
        <mxCell id="nfEbrX3HUhrgIlw5K9qe-11" value="Send OTP" style="html=1;verticalAlign=bottom;endArrow=block;curved=0;rounded=0;" edge="1" parent="1" target="nfEbrX3HUhrgIlw5K9qe-10">
          <mxGeometry width="80" relative="1" as="geometry">
            <mxPoint x="430" y="290" as="sourcePoint" />
            <mxPoint x="510" y="290" as="targetPoint" />
          </mxGeometry>
        </mxCell>
        <mxCell id="nfEbrX3HUhrgIlw5K9qe-14" value="Redirect to OTP page" style="html=1;verticalAlign=bottom;endArrow=open;dashed=1;endSize=8;curved=0;rounded=0;" edge="1" parent="1" target="XiqDTn7KQK7_tJrDZ4pP-1">
          <mxGeometry relative="1" as="geometry">
            <mxPoint x="420" y="230" as="sourcePoint" />
            <mxPoint x="340" y="230" as="targetPoint" />
          </mxGeometry>
        </mxCell>
        <mxCell id="nfEbrX3HUhrgIlw5K9qe-15" value="Response" style="html=1;verticalAlign=bottom;endArrow=open;dashed=1;endSize=8;curved=0;rounded=0;" edge="1" parent="1" target="XiqDTn7KQK7_tJrDZ4pP-6">
          <mxGeometry relative="1" as="geometry">
            <mxPoint x="740" y="370" as="sourcePoint" />
            <mxPoint x="660" y="370" as="targetPoint" />
          </mxGeometry>
        </mxCell>
        <mxCell id="nfEbrX3HUhrgIlw5K9qe-16" value="Display successful / unsuccessful message" style="html=1;verticalAlign=bottom;endArrow=open;dashed=1;endSize=8;curved=0;rounded=0;" edge="1" parent="1" target="XiqDTn7KQK7_tJrDZ4pP-1">
          <mxGeometry relative="1" as="geometry">
            <mxPoint x="420" y="370" as="sourcePoint" />
            <mxPoint x="340" y="370" as="targetPoint" />
          </mxGeometry>
        </mxCell>
        <mxCell id="nfEbrX3HUhrgIlw5K9qe-17" value="Alt" style="shape=umlFrame;whiteSpace=wrap;html=1;pointerEvents=0;" vertex="1" parent="1">
          <mxGeometry x="60" y="390" width="720" height="190" as="geometry" />
        </mxCell>
        <mxCell id="nfEbrX3HUhrgIlw5K9qe-18" value="[ verification successful ]" style="text;html=1;align=center;verticalAlign=middle;resizable=0;points=[];autosize=1;strokeColor=none;fillColor=none;" vertex="1" parent="1">
          <mxGeometry x="80" y="420" width="150" height="30" as="geometry" />
        </mxCell>
        <mxCell id="nfEbrX3HUhrgIlw5K9qe-21" value="" style="line;strokeWidth=1;fillColor=none;align=left;verticalAlign=middle;spacingTop=-1;spacingLeft=3;spacingRight=3;rotatable=0;labelPosition=right;points=[];portConstraint=eastwest;strokeColor=inherit;dashed=1;" vertex="1" parent="1">
          <mxGeometry x="60" y="500" width="720" height="8" as="geometry" />
        </mxCell>
        <mxCell id="nfEbrX3HUhrgIlw5K9qe-22" value="[ else ]" style="text;html=1;align=center;verticalAlign=middle;resizable=0;points=[];autosize=1;strokeColor=none;fillColor=none;" vertex="1" parent="1">
          <mxGeometry x="70" y="508" width="60" height="30" as="geometry" />
        </mxCell>
        <mxCell id="nfEbrX3HUhrgIlw5K9qe-23" value="Redirect to online application page" style="html=1;verticalAlign=bottom;endArrow=open;dashed=1;endSize=8;curved=0;rounded=0;" edge="1" parent="1">
          <mxGeometry relative="1" as="geometry">
            <mxPoint x="420.19" y="460" as="sourcePoint" />
            <mxPoint x="80.00034482758605" y="460" as="targetPoint" />
          </mxGeometry>
        </mxCell>
        <mxCell id="nfEbrX3HUhrgIlw5K9qe-24" value="Resend OTP request" style="html=1;verticalAlign=bottom;endArrow=block;curved=0;rounded=0;" edge="1" parent="1" target="XiqDTn7KQK7_tJrDZ4pP-6">
          <mxGeometry width="80" relative="1" as="geometry">
            <mxPoint x="80" y="550" as="sourcePoint" />
            <mxPoint x="160" y="550" as="targetPoint" />
          </mxGeometry>
        </mxCell>
        <mxCell id="nfEbrX3HUhrgIlw5K9qe-25" value="Select BO type" style="html=1;verticalAlign=bottom;endArrow=block;curved=0;rounded=0;" edge="1" parent="1" target="XiqDTn7KQK7_tJrDZ4pP-6">
          <mxGeometry width="80" relative="1" as="geometry">
            <mxPoint x="80" y="660" as="sourcePoint" />
            <mxPoint x="160" y="660" as="targetPoint" />
          </mxGeometry>
        </mxCell>
        <mxCell id="nfEbrX3HUhrgIlw5K9qe-26" value="Alt" style="shape=umlFrame;whiteSpace=wrap;html=1;pointerEvents=0;" vertex="1" parent="1">
          <mxGeometry x="60" y="680" width="390" height="160" as="geometry" />
        </mxCell>
        <mxCell id="nfEbrX3HUhrgIlw5K9qe-27" value="[ Link BO ]" style="text;html=1;align=center;verticalAlign=middle;resizable=0;points=[];autosize=1;strokeColor=none;fillColor=none;" vertex="1" parent="1">
          <mxGeometry x="80" y="710" width="80" height="30" as="geometry" />
        </mxCell>
        <mxCell id="nfEbrX3HUhrgIlw5K9qe-28" value="Enter BO ID and proceed to application" style="html=1;verticalAlign=bottom;endArrow=block;curved=0;rounded=0;" edge="1" parent="1">
          <mxGeometry width="80" relative="1" as="geometry">
            <mxPoint x="80" y="740" as="sourcePoint" />
            <mxPoint x="420" y="740" as="targetPoint" />
          </mxGeometry>
        </mxCell>
        <mxCell id="nfEbrX3HUhrgIlw5K9qe-29" value="" style="line;strokeWidth=1;fillColor=none;align=left;verticalAlign=middle;spacingTop=-1;spacingLeft=3;spacingRight=3;rotatable=0;labelPosition=right;points=[];portConstraint=eastwest;strokeColor=inherit;dashed=1;" vertex="1" parent="1">
          <mxGeometry x="60" y="760" width="390" height="8" as="geometry" />
        </mxCell>
        <mxCell id="nfEbrX3HUhrgIlw5K9qe-30" value="[ else ]" style="text;html=1;align=center;verticalAlign=middle;resizable=0;points=[];autosize=1;strokeColor=none;fillColor=none;" vertex="1" parent="1">
          <mxGeometry x="80" y="768" width="60" height="30" as="geometry" />
        </mxCell>
        <mxCell id="nfEbrX3HUhrgIlw5K9qe-31" value="Proceed to application" style="html=1;verticalAlign=bottom;endArrow=block;curved=0;rounded=0;" edge="1" parent="1" target="XiqDTn7KQK7_tJrDZ4pP-6">
          <mxGeometry width="80" relative="1" as="geometry">
            <mxPoint x="80" y="810" as="sourcePoint" />
            <mxPoint x="160" y="810" as="targetPoint" />
          </mxGeometry>
        </mxCell>
        <mxCell id="nfEbrX3HUhrgIlw5K9qe-32" value="Alt" style="shape=umlFrame;whiteSpace=wrap;html=1;pointerEvents=0;" vertex="1" parent="1">
          <mxGeometry x="20" y="870" width="800" height="980" as="geometry" />
        </mxCell>
        <mxCell id="nfEbrX3HUhrgIlw5K9qe-33" value="[ Client holds a joint A/C ]" style="text;html=1;align=center;verticalAlign=middle;resizable=0;points=[];autosize=1;strokeColor=none;fillColor=none;" vertex="1" parent="1">
          <mxGeometry x="70" y="900" width="160" height="30" as="geometry" />
        </mxCell>
        <mxCell id="nfEbrX3HUhrgIlw5K9qe-35" value="Req: Personal and bank information ( phone no, email)" style="html=1;verticalAlign=bottom;endArrow=block;curved=0;rounded=0;" edge="1" parent="1" target="nfEbrX3HUhrgIlw5K9qe-46">
          <mxGeometry width="80" relative="1" as="geometry">
            <mxPoint x="430" y="930" as="sourcePoint" />
            <mxPoint x="740" y="930" as="targetPoint" />
          </mxGeometry>
        </mxCell>
        <mxCell id="nfEbrX3HUhrgIlw5K9qe-36" value="Response" style="html=1;verticalAlign=bottom;endArrow=open;dashed=1;endSize=8;curved=0;rounded=0;" edge="1" parent="1" target="XiqDTn7KQK7_tJrDZ4pP-6">
          <mxGeometry relative="1" as="geometry">
            <mxPoint x="745" y="960" as="sourcePoint" />
            <mxPoint x="445" y="960" as="targetPoint" />
          </mxGeometry>
        </mxCell>
        <mxCell id="nfEbrX3HUhrgIlw5K9qe-37" value="Display personal and bank information" style="html=1;verticalAlign=bottom;endArrow=open;dashed=1;endSize=8;curved=0;rounded=0;" edge="1" parent="1" target="XiqDTn7KQK7_tJrDZ4pP-1">
          <mxGeometry relative="1" as="geometry">
            <mxPoint x="420" y="980" as="sourcePoint" />
            <mxPoint x="340" y="980" as="targetPoint" />
          </mxGeometry>
        </mxCell>
        <mxCell id="nfEbrX3HUhrgIlw5K9qe-38" value="" style="line;strokeWidth=1;fillColor=none;align=left;verticalAlign=middle;spacingTop=-1;spacingLeft=3;spacingRight=3;rotatable=0;labelPosition=right;points=[];portConstraint=eastwest;strokeColor=inherit;dashed=1;" vertex="1" parent="1">
          <mxGeometry x="20" y="1000" width="800" height="8" as="geometry" />
        </mxCell>
        <mxCell id="nfEbrX3HUhrgIlw5K9qe-39" value="[ else ]" style="text;html=1;align=center;verticalAlign=middle;resizable=0;points=[];autosize=1;strokeColor=none;fillColor=none;" vertex="1" parent="1">
          <mxGeometry x="70" y="1000" width="60" height="30" as="geometry" />
        </mxCell>
        <mxCell id="nfEbrX3HUhrgIlw5K9qe-40" value="Upload both side of NID" style="html=1;verticalAlign=bottom;endArrow=block;curved=0;rounded=0;" edge="1" parent="1" target="XiqDTn7KQK7_tJrDZ4pP-6">
          <mxGeometry width="80" relative="1" as="geometry">
            <mxPoint x="80" y="1040" as="sourcePoint" />
            <mxPoint x="160" y="1040" as="targetPoint" />
          </mxGeometry>
        </mxCell>
        <mxCell id="nfEbrX3HUhrgIlw5K9qe-41" value="" style="html=1;points=[[0,0,0,0,5],[0,1,0,0,-5],[1,0,0,0,5],[1,1,0,0,-5]];perimeter=orthogonalPerimeter;outlineConnect=0;targetShapes=umlLifeline;portConstraint=eastwest;newEdgeStyle={&quot;curved&quot;:0,&quot;rounded&quot;:0};" vertex="1" parent="1">
          <mxGeometry x="425" y="1070" width="10" height="40" as="geometry" />
        </mxCell>
        <mxCell id="nfEbrX3HUhrgIlw5K9qe-42" value="Extract NID no,&lt;div&gt;name, DOB, photo&lt;/div&gt;&lt;div&gt;&amp;nbsp;from NID&lt;/div&gt;" style="html=1;align=left;spacingLeft=2;endArrow=block;rounded=0;edgeStyle=orthogonalEdgeStyle;curved=0;rounded=0;" edge="1" target="nfEbrX3HUhrgIlw5K9qe-41" parent="1">
          <mxGeometry relative="1" as="geometry">
            <mxPoint x="430" y="1050" as="sourcePoint" />
            <Array as="points">
              <mxPoint x="460" y="1080" />
            </Array>
          </mxGeometry>
        </mxCell>
        <mxCell id="nfEbrX3HUhrgIlw5K9qe-43" value="" style="html=1;points=[[0,0,0,0,5],[0,1,0,0,-5],[1,0,0,0,5],[1,1,0,0,-5]];perimeter=orthogonalPerimeter;outlineConnect=0;targetShapes=umlLifeline;portConstraint=eastwest;newEdgeStyle={&quot;curved&quot;:0,&quot;rounded&quot;:0};" vertex="1" parent="1">
          <mxGeometry x="745" y="1120" width="10" height="50" as="geometry" />
        </mxCell>
        <mxCell id="nfEbrX3HUhrgIlw5K9qe-44" value="Req: NID information from EC ( NID no)" style="html=1;verticalAlign=bottom;endArrow=block;curved=0;rounded=0;" edge="1" parent="1" target="nfEbrX3HUhrgIlw5K9qe-43">
          <mxGeometry width="80" relative="1" as="geometry">
            <mxPoint x="430" y="1130" as="sourcePoint" />
            <mxPoint x="510" y="1130" as="targetPoint" />
          </mxGeometry>
        </mxCell>
        <mxCell id="nfEbrX3HUhrgIlw5K9qe-45" value="Response (NID no, name, DOB, photo)" style="html=1;verticalAlign=bottom;endArrow=open;dashed=1;endSize=8;curved=0;rounded=0;" edge="1" parent="1" target="XiqDTn7KQK7_tJrDZ4pP-6">
          <mxGeometry relative="1" as="geometry">
            <mxPoint x="740" y="1160" as="sourcePoint" />
            <mxPoint x="660" y="1160" as="targetPoint" />
          </mxGeometry>
        </mxCell>
        <mxCell id="nfEbrX3HUhrgIlw5K9qe-46" value="" style="html=1;points=[[0,0,0,0,5],[0,1,0,0,-5],[1,0,0,0,5],[1,1,0,0,-5]];perimeter=orthogonalPerimeter;outlineConnect=0;targetShapes=umlLifeline;portConstraint=eastwest;newEdgeStyle={&quot;curved&quot;:0,&quot;rounded&quot;:0};" vertex="1" parent="1">
          <mxGeometry x="745" y="920" width="10" height="50" as="geometry" />
        </mxCell>
        <mxCell id="nfEbrX3HUhrgIlw5K9qe-47" value="Display NID no, name, DOB" style="html=1;verticalAlign=bottom;endArrow=open;dashed=1;endSize=8;curved=0;rounded=0;" edge="1" parent="1" target="XiqDTn7KQK7_tJrDZ4pP-1">
          <mxGeometry relative="1" as="geometry">
            <mxPoint x="420" y="1120" as="sourcePoint" />
            <mxPoint x="340" y="1120" as="targetPoint" />
          </mxGeometry>
        </mxCell>
        <mxCell id="nfEbrX3HUhrgIlw5K9qe-49" value="Alt" style="shape=umlFrame;whiteSpace=wrap;html=1;pointerEvents=0;" vertex="1" parent="1">
          <mxGeometry x="30" y="1180" width="780" height="640" as="geometry" />
        </mxCell>
        <mxCell id="nfEbrX3HUhrgIlw5K9qe-50" value="[ NID authorized ]" style="text;html=1;align=center;verticalAlign=middle;resizable=0;points=[];autosize=1;strokeColor=none;fillColor=none;" vertex="1" parent="1">
          <mxGeometry x="70" y="1208" width="120" height="30" as="geometry" />
        </mxCell>
        <mxCell id="nfEbrX3HUhrgIlw5K9qe-51" value="" style="html=1;points=[[0,0,0,0,5],[0,1,0,0,-5],[1,0,0,0,5],[1,1,0,0,-5]];perimeter=orthogonalPerimeter;outlineConnect=0;targetShapes=umlLifeline;portConstraint=eastwest;newEdgeStyle={&quot;curved&quot;:0,&quot;rounded&quot;:0};" vertex="1" parent="1">
          <mxGeometry x="745" y="1230" width="10" height="50" as="geometry" />
        </mxCell>
        <mxCell id="nfEbrX3HUhrgIlw5K9qe-52" value="Req: NID information ( NID no)" style="html=1;verticalAlign=bottom;endArrow=block;curved=0;rounded=0;" edge="1" parent="1" target="nfEbrX3HUhrgIlw5K9qe-51">
          <mxGeometry width="80" relative="1" as="geometry">
            <mxPoint x="430" y="1240" as="sourcePoint" />
            <mxPoint x="510" y="1240" as="targetPoint" />
          </mxGeometry>
        </mxCell>
        <mxCell id="nfEbrX3HUhrgIlw5K9qe-53" value="Response&amp;nbsp;" style="html=1;verticalAlign=bottom;endArrow=open;dashed=1;endSize=8;curved=0;rounded=0;" edge="1" parent="1" target="XiqDTn7KQK7_tJrDZ4pP-6">
          <mxGeometry relative="1" as="geometry">
            <mxPoint x="740" y="1270" as="sourcePoint" />
            <mxPoint x="660" y="1270" as="targetPoint" />
          </mxGeometry>
        </mxCell>
        <mxCell id="nfEbrX3HUhrgIlw5K9qe-54" value="Alt" style="shape=umlFrame;whiteSpace=wrap;html=1;pointerEvents=0;" vertex="1" parent="1">
          <mxGeometry x="40" y="1290" width="760" height="510" as="geometry" />
        </mxCell>
        <mxCell id="nfEbrX3HUhrgIlw5K9qe-55" value="[ NID already exists ]" style="text;html=1;align=center;verticalAlign=middle;resizable=0;points=[];autosize=1;strokeColor=none;fillColor=none;" vertex="1" parent="1">
          <mxGeometry x="80" y="1318" width="130" height="30" as="geometry" />
        </mxCell>
        <mxCell id="nfEbrX3HUhrgIlw5K9qe-56" value="Application can&#39;t proceed further" style="html=1;verticalAlign=bottom;endArrow=open;dashed=1;endSize=8;curved=0;rounded=0;" edge="1" parent="1">
          <mxGeometry relative="1" as="geometry">
            <mxPoint x="420.33" y="1354.58" as="sourcePoint" />
            <mxPoint x="79.99666666666674" y="1354.58" as="targetPoint" />
          </mxGeometry>
        </mxCell>
        <mxCell id="nfEbrX3HUhrgIlw5K9qe-57" value="" style="line;strokeWidth=1;fillColor=none;align=left;verticalAlign=middle;spacingTop=-1;spacingLeft=3;spacingRight=3;rotatable=0;labelPosition=right;points=[];portConstraint=eastwest;strokeColor=inherit;dashed=1;" vertex="1" parent="1">
          <mxGeometry x="40" y="1370" width="760" height="8" as="geometry" />
        </mxCell>
        <mxCell id="nfEbrX3HUhrgIlw5K9qe-58" value="[ else ]" style="text;html=1;align=center;verticalAlign=middle;resizable=0;points=[];autosize=1;strokeColor=none;fillColor=none;" vertex="1" parent="1">
          <mxGeometry x="80" y="1375" width="60" height="30" as="geometry" />
        </mxCell>
        <mxCell id="nfEbrX3HUhrgIlw5K9qe-59" value="Alt" style="shape=umlFrame;whiteSpace=wrap;html=1;pointerEvents=0;" vertex="1" parent="1">
          <mxGeometry x="50" y="1405" width="740" height="385" as="geometry" />
        </mxCell>
        <mxCell id="nfEbrX3HUhrgIlw5K9qe-60" value="[ Capture photo ]" style="text;html=1;align=center;verticalAlign=middle;resizable=0;points=[];autosize=1;strokeColor=none;fillColor=none;" vertex="1" parent="1">
          <mxGeometry x="75" y="1438" width="110" height="30" as="geometry" />
        </mxCell>
        <mxCell id="nfEbrX3HUhrgIlw5K9qe-61" value="Capture photo" style="html=1;verticalAlign=bottom;endArrow=block;curved=0;rounded=0;" edge="1" parent="1">
          <mxGeometry width="80" relative="1" as="geometry">
            <mxPoint x="80" y="1469.58" as="sourcePoint" />
            <mxPoint x="420" y="1469.58" as="targetPoint" />
          </mxGeometry>
        </mxCell>
        <mxCell id="nfEbrX3HUhrgIlw5K9qe-62" value="" style="html=1;points=[[0,0,0,0,5],[0,1,0,0,-5],[1,0,0,0,5],[1,1,0,0,-5]];perimeter=orthogonalPerimeter;outlineConnect=0;targetShapes=umlLifeline;portConstraint=eastwest;newEdgeStyle={&quot;curved&quot;:0,&quot;rounded&quot;:0};" vertex="1" parent="1">
          <mxGeometry x="425" y="1500" width="10" height="40" as="geometry" />
        </mxCell>
        <mxCell id="nfEbrX3HUhrgIlw5K9qe-63" value="live photo&lt;div&gt;verification&lt;/div&gt;" style="html=1;align=left;spacingLeft=2;endArrow=block;rounded=0;edgeStyle=orthogonalEdgeStyle;curved=0;rounded=0;" edge="1" target="nfEbrX3HUhrgIlw5K9qe-62" parent="1">
          <mxGeometry relative="1" as="geometry">
            <mxPoint x="430" y="1480" as="sourcePoint" />
            <Array as="points">
              <mxPoint x="460" y="1510" />
            </Array>
          </mxGeometry>
        </mxCell>
        <mxCell id="nfEbrX3HUhrgIlw5K9qe-64" value="Alt" style="shape=umlFrame;whiteSpace=wrap;html=1;pointerEvents=0;" vertex="1" parent="1">
          <mxGeometry x="60" y="1550" width="720" height="210" as="geometry" />
        </mxCell>
        <mxCell id="nfEbrX3HUhrgIlw5K9qe-65" value="[ Verification successful ]" style="text;html=1;align=center;verticalAlign=middle;resizable=0;points=[];autosize=1;strokeColor=none;fillColor=none;" vertex="1" parent="1">
          <mxGeometry x="75" y="1578" width="150" height="30" as="geometry" />
        </mxCell>
        <mxCell id="nfEbrX3HUhrgIlw5K9qe-67" value="Redirect to information fill up page" style="html=1;verticalAlign=bottom;endArrow=open;dashed=1;endSize=8;curved=0;rounded=0;" edge="1" parent="1">
          <mxGeometry relative="1" as="geometry">
            <mxPoint x="420.33" y="1620" as="sourcePoint" />
            <mxPoint x="79.99666666666674" y="1620" as="targetPoint" />
          </mxGeometry>
        </mxCell>
        <mxCell id="nfEbrX3HUhrgIlw5K9qe-68" value="[ else ]" style="text;html=1;align=center;verticalAlign=middle;resizable=0;points=[];autosize=1;strokeColor=none;fillColor=none;" vertex="1" parent="1">
          <mxGeometry x="70" y="1635" width="60" height="30" as="geometry" />
        </mxCell>
        <mxCell id="nfEbrX3HUhrgIlw5K9qe-70" value="" style="html=1;points=[[0,0,0,0,5],[0,1,0,0,-5],[1,0,0,0,5],[1,1,0,0,-5]];perimeter=orthogonalPerimeter;outlineConnect=0;targetShapes=umlLifeline;portConstraint=eastwest;newEdgeStyle={&quot;curved&quot;:0,&quot;rounded&quot;:0};" vertex="1" parent="1">
          <mxGeometry x="745" y="1665" width="10" height="30" as="geometry" />
        </mxCell>
        <mxCell id="nfEbrX3HUhrgIlw5K9qe-71" value="Store photo" style="html=1;verticalAlign=bottom;endArrow=block;curved=0;rounded=0;" edge="1" parent="1">
          <mxGeometry width="80" relative="1" as="geometry">
            <mxPoint x="430" y="1680" as="sourcePoint" />
            <mxPoint x="745" y="1680" as="targetPoint" />
          </mxGeometry>
        </mxCell>
        <mxCell id="nfEbrX3HUhrgIlw5K9qe-72" value="" style="line;strokeWidth=1;fillColor=none;align=left;verticalAlign=middle;spacingTop=-1;spacingLeft=3;spacingRight=3;rotatable=0;labelPosition=right;points=[];portConstraint=eastwest;strokeColor=inherit;dashed=1;" vertex="1" parent="1">
          <mxGeometry x="60" y="1635" width="720" height="8" as="geometry" />
        </mxCell>
        <mxCell id="nfEbrX3HUhrgIlw5K9qe-73" value="Redirect to information fill up page" style="html=1;verticalAlign=bottom;endArrow=open;dashed=1;endSize=8;curved=0;rounded=0;" edge="1" parent="1" target="XiqDTn7KQK7_tJrDZ4pP-1">
          <mxGeometry relative="1" as="geometry">
            <mxPoint x="420" y="1700" as="sourcePoint" />
            <mxPoint x="340" y="1700" as="targetPoint" />
          </mxGeometry>
        </mxCell>
      </root>
    </mxGraphModel>
  </diagram>
</mxfile>
